<svg xmlns="http://www.w3.org/2000/svg" xmlns:xlink="http://www.w3.org/1999/xlink" width="500" zoomAndPan="magnify" viewBox="0 0 375 374.999991" height="500" preserveAspectRatio="xMidYMid meet" version="1.0"><defs><clipPath id="22cbd98fd9"><path d="M 18.539062 70 L 139 70 L 139 303 L 18.539062 303 Z M 18.539062 70 " clip-rule="nonzero"/></clipPath><clipPath id="2a529ab289"><path d="M 109 69.5 L 356.789062 69.5 L 356.789062 305 L 109 305 Z M 109 69.5 " clip-rule="nonzero"/></clipPath><clipPath id="53ba8b175b"><path d="M 156 175 L 276 175 L 276 305.75 L 156 305.75 Z M 156 175 " clip-rule="nonzero"/></clipPath></defs><g clip-path="url(#22cbd98fd9)"><path fill="#ffffff" d="M 26.730469 302.203125 C 17.894531 303.417969 17.289062 293.675781 20.648438 289.773438 C 24.007812 285.875 68.941406 292.5625 80.90625 244.851562 C 96.183594 183.945312 107.367188 86.214844 121.828125 71.796875 C 131.417969 62.238281 136.777344 125.929688 138.363281 148.621094 C 138.703125 153.453125 138.570312 158.347656 138.097656 161.261719 C 136.710938 169.875 133.828125 187.714844 132.789062 194.160156 C 132.058594 198.671875 130.710938 199.480469 130.289062 194.417969 C 128.988281 178.765625 122.3125 98.367188 122.3125 98.367188 C 122.3125 98.367188 101.625 246.285156 81.511719 276.070312 C 64.835938 300.765625 29.921875 301.769531 26.730469 302.203125 Z M 26.730469 302.203125 " fill-opacity="1" fill-rule="nonzero"/></g><g clip-path="url(#2a529ab289)"><path fill="#ffffff" d="M 301.359375 276.070312 C 288.738281 257.375 272.742188 131.566406 261.246094 103.636719 C 258.488281 96.929688 259.195312 150.875 252.902344 157.851562 C 243.535156 168.226562 234.839844 129.863281 232.582031 131.761719 C 230.242188 138.566406 224.289062 149.289062 220.375 161.117188 C 213.371094 182.273438 206.589844 206.171875 193.882812 211.898438 C 173.335938 219.335938 166.53125 156.679688 158.671875 159.535156 C 149.199219 170.089844 140.132812 296.300781 129.140625 303.839844 C 120.457031 309.179688 111.753906 236.640625 109.804688 219.324219 C 109.542969 216.988281 109.738281 214.0625 110.253906 211.585938 C 111.535156 205.457031 113.929688 193.929688 115.152344 187.804688 C 115.597656 185.566406 116.085938 185.007812 116.351562 187.917969 C 117.867188 204.617188 123.050781 265.351562 128.878906 259.390625 C 138.222656 249.835938 139.632812 160.078125 155.03125 136.003906 C 165.902344 119.011719 180.601562 209.253906 193.730469 198.148438 C 200.371094 192.527344 205.214844 173.28125 211.480469 153.347656 C 215.40625 140.863281 218.371094 127.238281 227.410156 119.226562 C 236.378906 111.273438 246.046875 134.074219 247.347656 131.90625 C 248.589844 129.835938 249.847656 57.457031 261.472656 71.246094 C 273.71875 85.769531 295.332031 218.390625 301.96875 244.851562 C 313.933594 292.5625 350.992188 284.085938 354.351562 287.984375 C 357.710938 291.886719 357.105469 301.628906 348.265625 300.414062 C 345.078125 299.976562 318.035156 300.765625 301.359375 276.070312 Z M 301.359375 276.070312 " fill-opacity="1" fill-rule="nonzero"/></g><g clip-path="url(#53ba8b175b)"><path fill="#ffffff" d="M 156.859375 201.519531 C 157.53125 197.566406 158.445312 192.203125 158.878906 189.632812 C 159.355469 186.847656 160.679688 185.339844 161.789062 189.382812 C 163.121094 194.222656 165.144531 201.191406 167.589844 208.429688 C 174.65625 229.332031 184.203125 257.152344 192.867188 257.152344 C 203.390625 257.152344 210.355469 188.617188 231.398438 176.242188 C 244.585938 168.488281 250.066406 268.773438 255.132812 266.101562 C 257.425781 264.890625 258.886719 251.546875 261.351562 236.777344 C 264.035156 220.710938 267.007812 201.976562 268.796875 190.609375 C 269.796875 184.257812 271.628906 186.550781 272.386719 190.550781 C 272.9375 193.445312 273.9375 198.71875 274.769531 203.09375 C 275.527344 207.078125 275.789062 213.484375 275.148438 218.371094 C 272.078125 241.835938 262.390625 309.332031 253.300781 305.324219 C 244.78125 301.5625 238.375 191.761719 231.613281 197.460938 C 212.128906 213.878906 222.964844 269.476562 191.894531 269.007812 C 173.539062 268.730469 161.433594 227.929688 157.464844 212.304688 C 156.527344 208.601562 156.394531 204.253906 156.859375 201.519531 Z M 156.859375 201.519531 " fill-opacity="1" fill-rule="nonzero"/></g></svg>