<svg xmlns="http://www.w3.org/2000/svg" xmlns:xlink="http://www.w3.org/1999/xlink" width="500" zoomAndPan="magnify" viewBox="0 0 375 374.999991" height="500" preserveAspectRatio="xMidYMid meet" version="1.0"><defs><clipPath id="7e0f87304a"><path d="M 18.539062 70 L 139 70 L 139 303 L 18.539062 303 Z M 18.539062 70 " clip-rule="nonzero"/></clipPath><clipPath id="8ca3da18cd"><path d="M 109 69.5 L 356.789062 69.5 L 356.789062 305 L 109 305 Z M 109 69.5 " clip-rule="nonzero"/></clipPath><clipPath id="41a671af8a"><path d="M 156 175 L 276 175 L 276 305.75 L 156 305.75 Z M 156 175 " clip-rule="nonzero"/></clipPath></defs><g clip-path="url(#7e0f87304a)"><path fill="#000000" d="M 26.742188 302.460938 C 17.894531 303.671875 17.285156 293.917969 20.648438 290.015625 C 24.011719 286.113281 68.988281 292.804688 80.96875 245.042969 C 96.257812 184.070312 107.453125 86.234375 121.929688 71.800781 C 131.53125 62.230469 136.894531 125.992188 138.480469 148.707031 C 138.820312 153.542969 138.6875 158.445312 138.214844 161.363281 C 136.824219 169.984375 133.941406 187.847656 132.898438 194.296875 C 132.171875 198.816406 130.820312 199.625 130.398438 194.554688 C 129.097656 178.886719 122.410156 98.398438 122.410156 98.398438 C 122.410156 98.398438 101.703125 246.476562 81.574219 276.296875 C 64.882812 301.019531 29.933594 302.023438 26.742188 302.460938 Z M 26.742188 302.460938 " fill-opacity="1" fill-rule="nonzero"/></g><g clip-path="url(#8ca3da18cd)"><path fill="#000000" d="M 301.636719 276.296875 C 289 257.582031 272.988281 131.632812 261.484375 103.675781 C 258.71875 96.960938 259.429688 150.964844 253.128906 157.945312 C 243.753906 168.332031 235.050781 129.929688 232.789062 131.828125 C 230.449219 138.644531 224.488281 149.378906 220.570312 161.214844 C 213.558594 182.394531 206.773438 206.320312 194.050781 212.054688 C 173.488281 219.5 166.675781 156.773438 158.808594 159.636719 C 149.328125 170.199219 140.25 296.550781 129.246094 304.097656 C 120.554688 309.441406 111.84375 236.824219 109.894531 219.488281 C 109.632812 217.148438 109.828125 214.21875 110.34375 211.742188 C 111.625 205.605469 114.023438 194.0625 115.246094 187.933594 C 115.691406 185.695312 116.179688 185.136719 116.445312 188.046875 C 117.964844 204.765625 123.152344 265.5625 128.988281 259.597656 C 138.339844 250.03125 139.75 160.175781 155.164062 136.078125 C 166.046875 119.066406 180.761719 209.40625 193.898438 198.289062 C 200.546875 192.660156 205.394531 173.394531 211.667969 153.441406 C 215.597656 140.941406 218.566406 127.300781 227.609375 119.28125 C 236.589844 111.320312 246.265625 134.144531 247.570312 131.972656 C 248.8125 129.902344 250.074219 57.445312 261.710938 71.25 C 273.96875 85.789062 295.597656 218.550781 302.242188 245.042969 C 314.21875 292.804688 351.316406 284.320312 354.679688 288.222656 C 358.042969 292.128906 357.433594 301.878906 348.585938 300.667969 C 345.394531 300.230469 318.328125 301.019531 301.636719 276.296875 Z M 301.636719 276.296875 " fill-opacity="1" fill-rule="nonzero"/></g><g clip-path="url(#41a671af8a)"><path fill="#000000" d="M 156.992188 201.664062 C 157.664062 197.707031 158.578125 192.335938 159.015625 189.765625 C 159.492188 186.976562 160.816406 185.46875 161.929688 189.511719 C 163.261719 194.359375 165.285156 201.335938 167.734375 208.582031 C 174.804688 229.507812 184.367188 257.355469 193.035156 257.355469 C 203.570312 257.355469 210.539062 188.746094 231.605469 176.359375 C 244.804688 168.597656 250.289062 268.992188 255.363281 266.316406 C 257.660156 265.105469 259.117188 251.746094 261.585938 236.960938 C 264.273438 220.878906 267.25 202.121094 269.039062 190.742188 C 270.039062 184.382812 271.875 186.675781 272.632812 190.683594 C 273.183594 193.578125 274.1875 198.859375 275.019531 203.238281 C 275.777344 207.226562 276.039062 213.640625 275.398438 218.535156 C 272.324219 242.023438 262.628906 309.59375 253.53125 305.578125 C 245.003906 301.816406 238.589844 191.898438 231.820312 197.601562 C 212.316406 214.035156 223.160156 269.691406 192.0625 269.226562 C 173.691406 268.949219 161.570312 228.101562 157.601562 212.460938 C 156.660156 208.753906 156.527344 204.398438 156.992188 201.664062 Z M 156.992188 201.664062 " fill-opacity="1" fill-rule="nonzero"/></g></svg>